<svg xmlns="http://www.w3.org/2000/svg" viewBox="0 0 187.09 118.91"><defs><style>.cls-1{fill:#00acec;}</style></defs><title>Asset 1</title><g id="Layer_2" data-name="Layer 2"><g id="Layer_1-2" data-name="Layer 1"><path class="cls-1" d="M163.06,29.37h24L184.73,42.2H175l-2.26,12.12h8.73l-2.16,12.12h-8.73l-9.34,52.47H146.94l16.12-89.54Zm-5.14,0H143.35L134.51,76.5A35.89,35.89,0,0,1,133,82.66a2.26,2.26,0,0,1-2.05,1.23,1.29,1.29,0,0,1-1.44-1.13,24.22,24.22,0,0,1,.62-5.44l9-48H124.45l-7.09,37.89C116,74.44,115.21,79.17,115,81.43a13.91,13.91,0,0,0,1.13,6.47A9.75,9.75,0,0,0,121,92.82a16.89,16.89,0,0,0,8.52,2,19.26,19.26,0,0,0,8.21-1.64A16.6,16.6,0,0,0,144,88.41a18,18,0,0,0,3.59-6.06,75.48,75.48,0,0,0,2.36-10.27l8-42.71ZM98.27,70.54c.61-7.29,1.54-16.12,2.88-26.8-3.8,12.22-6.37,21-7.7,26.8Zm14.89-41.18-4.52,64.07H95.19l1.44-11.6H91.49l-3.08,11.6H73.83L94.37,29.37h18.79Zm-30.39,0H70.44L65.1,58.22,62.23,29.37H50L38,93.44H50.31l5.44-29.16,2.16,29.16H70.75l12-64.07Zm-39.33.51-12.12,29,3,34.6H20.85l-2.46-22.9-4.31,22.9H0L14.68,0H28.75L21.56,51.14,30.5,29.88H43.44Z"/></g></g></svg>