<svg version="1.0" xmlns="http://www.w3.org/2000/svg"
 width="1024.000000pt" height="1024.000000pt" viewBox="0 0 1024.000000 1024.000000"
 preserveAspectRatio="xMidYMid meet">

 <rect width="100%" height="100%" fill="#0fcafb"/>

<g transform="translate(0.000000,1024.000000) scale(0.100000,-0.100000)"
fill="white" stroke="none">
<path d="M3425 7449 c-376 -18 -769 -83 -1069 -179 -139 -45 -176 -73 -176
-133 0 -18 50 -158 110 -311 148 -379 141 -373 365 -320 279 67 488 94 735 94
556 0 869 -153 964 -470 21 -70 46 -229 46 -296 l0 -51 -61 -7 c-34 -3 -312
-6 -618 -6 -313 0 -606 -5 -671 -11 -369 -34 -666 -164 -896 -393 -273 -272
-389 -606 -371 -1071 7 -180 26 -295 73 -435 108 -323 325 -562 650 -717 593
-281 1324 -233 1864 124 111 73 270 201 270 216 0 5 44 -36 98 -90 283 -287
669 -424 1197 -424 537 0 921 134 1276 447 50 43 105 98 123 121 l33 42 20
-72 c58 -207 107 -365 119 -389 29 -56 43 -58 401 -58 377 0 381 1 421 80 l22
44 0 2073 c0 1782 -2 2078 -14 2108 -19 44 -71 78 -111 71 -39 -6 -834 -353
-858 -374 -11 -9 -24 -26 -30 -37 -9 -15 -13 -329 -18 -1180 -5 -1155 -5
-1160 -28 -1259 -12 -54 -37 -136 -56 -182 -119 -296 -408 -508 -776 -570
-133 -22 -339 -15 -454 15 -304 80 -467 294 -505 662 -5 56 -10 335 -10 623 0
685 -16 883 -95 1156 -146 506 -442 852 -870 1019 -286 112 -662 160 -1100
140z m989 -2456 c3 -21 6 -157 6 -303 0 -295 -9 -362 -60 -466 -78 -160 -231
-278 -455 -353 -199 -67 -441 -79 -620 -32 -303 79 -496 307 -497 586 -1 277
123 453 377 534 83 27 241 56 355 64 25 2 235 4 466 5 l421 2 7 -37z"/>
</g>
</svg>
