<?xml version="1.0" encoding="UTF-8"?>
<svg xmlns="http://www.w3.org/2000/svg" version="1.1" viewBox="0 0 305 74">
  <g id="Layer_1">
    <path d="M304,1v72H1V1h303M305,0H0v74h305V0h0Z" fill="#fff"/>
    <path d="M68.77,57.47c0,.26-1.38,1.5-4.14,3.72-2.76,2.21-5.13,4-7.11,5.35-.07-.6-.17-1.5-.28-2.7-.75-.15-1.89-.23-3.42-.23h-.11c-.04-.64-.08-1.3-.11-1.97-.15-1.13-.49-1.69-1.01-1.69-.08,0-.29.04-.64.11-.35.07-.59.11-.7.11-.6,0-.9-.32-.9-.96v-1.69c0-.49-.13-.83-.39-1.01-.94.34-1.73.51-2.37.51-.49,0-1.01-.13-1.58-.39.49-.98.73-1.58.73-1.8,0-.34-.19-.6-.56-.79-.6-.11-1.22-.24-1.86-.39-.75-.19-1.13-.58-1.13-1.18,0-.07.08-.35.25-.82.17-.47.25-.74.25-.82,0-.79-.56-1.18-1.69-1.18h-1.24c-.38,0-.59-.04-.65-.11-.06-.08-.14-.66-.25-1.75-.08-.71-.25-1.26-.51-1.63-.6-.9-1.45-1.35-2.53-1.35h-.28c-.38,0-.64-.02-.79-.06-.15-.19-.39-.37-.73-.56-.19-.04-.39-.06-.62-.06h-.73c-.56,0-1-.13-1.3-.39v-.28c0-.26.03-.69.08-1.27.06-.58.08-1,.08-1.27,0-.15-.15-.34-.45-.56h-1.35c-.38,0-.7-.02-.96-.06v-.11c0-.19.05-.58.14-1.18.09-.6.14-1.05.14-1.35,0-.83-.28-1.24-.84-1.24-.11,0-.33.07-.65.2-.32.13-.54.2-.65.2h-.79c-.08-.6-.17-1.22-.28-1.86-.19-.86-.45-1.3-.79-1.3-.11,0-.27.04-.48.11-.21.08-.37.11-.48.11-.23,0-.47-.13-.73-.4,0-.53-.02-1.1-.06-1.72-.04-.62-.21-1.16-.51-1.61-.6-.87-1.43-1.45-2.48-1.75-.19-.04-1.07-.17-2.65-.4-.86-.07-1.75-.13-2.65-.17-1.13-.11-1.93-.36-2.42-.73-1.88-1.36-2.82-3.16-2.82-5.42,0-2.79,1.13-5.4,3.38-7.85,2.25-2.45,4.77-3.67,7.55-3.67,1.31,0,2.65.32,4,.97,1.65.83,2.65,1.89,2.99,3.18,0,.61.19,1.4.56,2.38.53.42,1.09.62,1.69.62.15,0,.32-.02.51-.06h.45c.15,0,.28.04.39.11,2.44,2.22,6.42,6.42,11.94,12.62.94.94,2.37,2.46,4.28,4.56,4.47,4.77,11.15,11.98,20.05,21.63.11.15.17.49.17,1.01,0-.11,0-.02,0,.28ZM25.51,19.14c0-3.06-1.13-4.59-3.38-4.59-1.24,0-2.61.57-4.11,1.7-1.69,1.25-2.54,2.57-2.54,3.97,0,1.78,1.24,2.67,3.72,2.67,1.01,0,2.18-.26,3.49-.79,1.88-.72,2.82-1.7,2.82-2.95ZM38.92,48.68v.28c.04.15.06.28.06.39,0,.19-.04.34-.11.45-1.09,1.35-2.54,3-4.34,4.93-1.8,1.93-2.78,2.9-2.93,2.9-.71,0-1.77-.68-3.15-2.03-.53-.56-.92-1.35-1.18-2.37,1.99-1.92,3.98-3.83,5.97-5.75.86-.75,2.33-1.13,4.39-1.13.86,0,1.3.77,1.3,2.31ZM72.83,23.78c-2.22,2.44-3.34,3.68-3.38,3.72-1.69,1.73-2.93,2.59-3.72,2.59-.49,0-1.01-.36-1.58-1.07-.45-.6-.68-1.07-.68-1.41,0-.11.1-.34.31-.68.21-.34.31-.56.31-.68,0-.23-.3-.55-.9-.99-.6-.43-1.01-.65-1.24-.65l-10.37,10.87c-1.12-.34-2.06-1.53-2.8-3.59l9.35-10.14c-.87-1.81-2.82-2.72-5.87-2.72-.23,0-1.22.08-2.99.23,2.4-3,5.01-4.51,7.83-4.51,1.54,0,3.34.64,5.41,1.92,1.35.86,2.91,2.07,4.68,3.61,1.46,1.28,2.25,1.92,2.37,1.92.07,0,.26-.08.56-.25.3-.17.49-.25.56-.25.45,0,1.16.7,2.14,2.08Z" fill="#fff"/>
    <g>
      <g>
        <path d="M143.69,49.92v1.21h-3.57v7.02h-1.48v-8.23h5.05Z" fill="#fff"/>
        <path d="M143.57,57.26c0-.63.43-1.07,1.02-1.07s1,.44,1,1.07-.39,1.07-1.02,1.07c-.59,0-1-.46-1-1.07Z" fill="#fff"/>
        <path d="M152.56,46.69v5.08h.46l3.93-5.08h1.78l-4.33,5.25c1.89.25,2.62,1.41,3.21,2.96.43,1.17.75,2.23,1.26,3.25h-1.6c-.41-.78-.73-1.8-1.04-2.7-.53-1.51-1.26-2.55-3.2-2.55h-.48v5.25h-1.46v-11.46h1.46Z" fill="#fff"/>
        <path d="M160.26,52.6c0-1.05-.03-1.9-.07-2.69h1.34l.07,1.41h.03c.61-1,1.58-1.6,2.92-1.6,1.99,0,3.49,1.68,3.49,4.18,0,2.96-1.8,4.42-3.74,4.42-1.09,0-2.04-.48-2.53-1.29h-.03v4.47h-1.48v-8.91ZM161.74,54.79c0,.22.03.42.07.61.27,1.04,1.17,1.75,2.24,1.75,1.58,0,2.5-1.29,2.5-3.18,0-1.65-.87-3.06-2.45-3.06-1.02,0-1.97.73-2.26,1.85-.05.19-.1.41-.1.61v1.41Z" fill="#fff"/>
        <path d="M174.49,58.14l-.12-1.04h-.05c-.46.65-1.34,1.22-2.52,1.22-1.67,0-2.52-1.17-2.52-2.36,0-1.99,1.77-3.08,4.95-3.06v-.17c0-.68-.19-1.9-1.87-1.9-.77,0-1.56.24-2.14.61l-.34-.99c.68-.44,1.67-.73,2.7-.73,2.52,0,3.13,1.72,3.13,3.37v3.08c0,.71.03,1.41.14,1.97h-1.36ZM174.27,53.94c-1.63-.03-3.48.25-3.48,1.85,0,.97.65,1.43,1.41,1.43,1.07,0,1.75-.68,1.99-1.38.05-.15.08-.32.08-.48v-1.43Z" fill="#fff"/>
        <path d="M184,57.84c-.39.2-1.26.48-2.36.48-2.48,0-4.1-1.68-4.1-4.2s1.73-4.37,4.42-4.37c.88,0,1.67.22,2.07.42l-.34,1.16c-.36-.2-.92-.39-1.73-.39-1.89,0-2.91,1.39-2.91,3.11,0,1.9,1.22,3.08,2.86,3.08.85,0,1.41-.22,1.84-.41l.25,1.12Z" fill="#fff"/>
        <path d="M187.19,49.92v3.32h3.91v-3.32h1.48v8.23h-1.48v-3.72h-3.91v3.72h-1.48v-8.23h1.48Z" fill="#fff"/>
        <path d="M202.47,53.96c0,3.04-2.11,4.37-4.1,4.37-2.23,0-3.94-1.63-3.94-4.23,0-2.75,1.8-4.37,4.08-4.37s3.96,1.72,3.96,4.23ZM195.95,54.05c0,1.8,1.04,3.16,2.5,3.16s2.5-1.34,2.5-3.2c0-1.39-.7-3.16-2.46-3.16s-2.53,1.63-2.53,3.2Z" fill="#fff"/>
        <path d="M210.36,58.14h-1.48v-3.45h-1.11c-.63,0-1.05.17-1.38.46-.61.49-.83,1.51-1.16,2.31-.1.25-.22.48-.34.68h-1.6c.19-.27.36-.58.51-.93.36-.8.56-1.87,1.29-2.48.25-.22.56-.41.93-.48v-.05c-1.07-.12-2.18-.78-2.18-2.04,0-.85.46-1.43,1.09-1.79.68-.39,1.68-.56,2.75-.56.99,0,1.94.08,2.65.17v8.16ZM208.88,50.9c-.37-.05-.71-.08-1.24-.08-1.02,0-2.23.29-2.23,1.43,0,1.05,1.31,1.43,2.19,1.43h1.28v-2.77Z" fill="#fff"/>
        <path d="M212.79,52.6c0-1.05-.03-1.9-.07-2.69h1.34l.07,1.41h.03c.61-1,1.58-1.6,2.92-1.6,1.99,0,3.49,1.68,3.49,4.18,0,2.96-1.8,4.42-3.74,4.42-1.09,0-2.04-.48-2.53-1.29h-.03v4.47h-1.48v-8.91ZM214.27,54.79c0,.22.03.42.07.61.27,1.04,1.17,1.75,2.24,1.75,1.58,0,2.5-1.29,2.5-3.18,0-1.65-.87-3.06-2.45-3.06-1.02,0-1.97.73-2.26,1.85-.05.19-.1.41-.1.61v1.41Z" fill="#fff"/>
        <path d="M228.33,57.84c-.39.2-1.26.48-2.36.48-2.48,0-4.1-1.68-4.1-4.2s1.73-4.37,4.42-4.37c.88,0,1.67.22,2.07.42l-.34,1.16c-.36-.2-.92-.39-1.73-.39-1.89,0-2.91,1.39-2.91,3.11,0,1.9,1.22,3.08,2.86,3.08.85,0,1.41-.22,1.84-.41l.25,1.12Z" fill="#fff"/>
        <path d="M231.56,49.92v3.57h.36l3.09-3.57h1.82l-3.59,3.72c1.33.14,2.12,1.02,2.77,2.5.22.54.51,1.34.88,2.01h-1.56c-.22-.36-.51-1-.76-1.68-.56-1.33-1.33-1.94-2.72-1.94h-.29v3.62h-1.48v-8.23h1.48Z" fill="#fff"/>
      </g>
      <g>
        <path d="M95.98,34.35c-1.02.51-3.07,1.02-5.7,1.02-6.08,0-10.66-3.84-10.66-10.91s4.58-11.33,11.26-11.33c2.69,0,4.38.58,5.12.96l-.67,2.27c-1.06-.51-2.56-.9-4.35-.9-5.06,0-8.42,3.23-8.42,8.9,0,5.28,3.04,8.67,8.29,8.67,1.7,0,3.42-.35,4.54-.9l.58,2.21Z" fill="#fff"/>
        <path d="M108.78,19.57v2.24h-4.83v13.25h-2.78v-13.25h-4.83v-2.24h12.45Z" fill="#fff"/>
        <path d="M111.24,24.63c0-1.98-.06-3.58-.13-5.06h2.53l.13,2.66h.06c1.15-1.89,2.98-3.01,5.5-3.01,3.74,0,6.56,3.17,6.56,7.87,0,5.57-3.39,8.32-7.04,8.32-2.05,0-3.84-.9-4.77-2.43h-.06v8.42h-2.78v-16.77ZM114.03,28.75c0,.42.06.8.13,1.15.51,1.95,2.21,3.3,4.22,3.3,2.98,0,4.7-2.43,4.7-5.98,0-3.1-1.63-5.76-4.61-5.76-1.92,0-3.71,1.38-4.26,3.49-.1.35-.19.77-.19,1.15v2.66Z" fill="#fff"/>
        <path d="M143.46,27.19c0,5.73-3.97,8.22-7.71,8.22-4.19,0-7.42-3.07-7.42-7.97,0-5.18,3.39-8.22,7.68-8.22s7.46,3.23,7.46,7.97ZM131.18,27.35c0,3.39,1.95,5.95,4.7,5.95s4.7-2.53,4.7-6.02c0-2.62-1.31-5.95-4.64-5.95s-4.77,3.07-4.77,6.02Z" fill="#fff"/>
        <path d="M149.61,19.57v6.53c0,2.46-.03,4-.16,6.21l.1.03c.93-1.89,1.47-2.98,2.5-4.77l4.83-8h3.3v15.49h-2.69v-6.56c0-2.53.06-3.84.19-6.34h-.1c-.99,1.98-1.66,3.23-2.56,4.8-1.47,2.4-3.17,5.38-4.83,8.1h-3.23v-15.49h2.66ZM151.43,13.27c.1,1.38.77,2.43,2.05,2.43,1.38,0,2.02-1.02,2.18-2.43h2.02c-.13,2.62-1.79,3.97-4.25,3.97-2.82,0-3.9-1.76-4.03-3.97h2.05Z" fill="#fff"/>
        <path d="M164.84,13.75c1.34-.22,3.1-.42,5.34-.42,2.75,0,4.77.64,6.05,1.79,1.18,1.02,1.89,2.59,1.89,4.51s-.58,3.49-1.66,4.61c-1.47,1.57-3.87,2.37-6.59,2.37-.83,0-1.6-.03-2.24-.19v8.64h-2.78V13.75ZM167.62,24.15c.61.16,1.38.22,2.3.22,3.36,0,5.41-1.63,5.41-4.61s-2.02-4.22-5.09-4.22c-1.22,0-2.14.1-2.62.22v8.38Z" fill="#fff"/>
        <path d="M182.44,27.83c.06,3.81,2.5,5.38,5.31,5.38,2.02,0,3.23-.35,4.29-.8l.48,2.02c-.99.45-2.69.96-5.15.96-4.77,0-7.62-3.14-7.62-7.81s2.75-8.35,7.26-8.35c5.06,0,6.4,4.45,6.4,7.3,0,.58-.06,1.02-.1,1.31h-10.88ZM190.69,25.81c.03-1.79-.74-4.58-3.9-4.58-2.85,0-4.1,2.62-4.32,4.58h8.22Z" fill="#fff"/>
        <path d="M197.06,19.57h3.46l2.82,7.81c.38,1.15,1.06,3.04,1.41,4.26h.06c.35-1.15,1.22-3.62,1.82-5.31l2.5-6.75h3.49l1.09,15.49h-2.69l-.35-7.39c-.1-1.66-.22-3.65-.29-5.54h-.1c-.42,1.41-.83,2.66-1.7,5.02l-2.98,7.81h-2.05l-2.75-7.65c-.48-1.47-1.15-3.71-1.54-5.15h-.13c-.06,1.82-.16,3.87-.26,5.57l-.38,7.33h-2.59l1.15-15.49Z" fill="#fff"/>
        <path d="M231.36,27.19c0,5.73-3.97,8.22-7.71,8.22-4.19,0-7.42-3.07-7.42-7.97,0-5.18,3.39-8.22,7.68-8.22s7.46,3.23,7.46,7.97ZM219.08,27.35c0,3.39,1.95,5.95,4.7,5.95s4.7-2.53,4.7-6.02c0-2.62-1.31-5.95-4.64-5.95s-4.77,3.07-4.77,6.02Z" fill="#fff"/>
        <path d="M237.64,19.57v6.24h7.36v-6.24h2.78v15.49h-2.78v-7.01h-7.36v7.01h-2.78v-15.49h2.78Z" fill="#fff"/>
        <path d="M262.76,19.57v2.24h-4.83v13.25h-2.78v-13.25h-4.83v-2.24h12.45Z" fill="#fff"/>
        <path d="M264.55,35.06v-1.73l2.21-2.14c5.31-5.06,7.71-7.74,7.74-10.88,0-2.11-1.02-4.06-4.13-4.06-1.89,0-3.46.96-4.42,1.76l-.9-1.98c1.44-1.22,3.49-2.11,5.89-2.11,4.48,0,6.37,3.07,6.37,6.05,0,3.84-2.78,6.94-7.17,11.17l-1.66,1.54v.06h9.34v2.34h-13.28Z" fill="#fff"/>
        <path d="M289.67,35.06v-5.66h-9.66v-1.86l9.28-13.28h3.04v12.93h2.91v2.21h-2.91v5.66h-2.66ZM289.67,27.19v-6.94c0-1.09.03-2.18.1-3.26h-.1c-.64,1.22-1.15,2.11-1.73,3.07l-5.09,7.07v.06h6.82Z" fill="#fff"/>
      </g>
    </g>
  </g>
</svg>
