<?xml version="1.0" encoding="utf-8"?><svg xmlns="http://www.w3.org/2000/svg" xmlns:xlink="http://www.w3.org/1999/xlink"><symbol viewBox="0 0 187.09 118.91" id="Asset_1"><path d="M163.06 29.37h24l-2.33 12.83H175l-2.26 12.12h8.73l-2.16 12.12h-8.73l-9.34 52.47h-14.3l16.12-89.54Zm-5.14 0h-14.57l-8.84 47.13a35.89 35.89 0 0 1-1.51 6.16 2.26 2.26 0 0 1-2.05 1.23 1.29 1.29 0 0 1-1.44-1.13 24.22 24.22 0 0 1 .62-5.44l9-48h-14.68l-7.09 37.89c-1.36 7.23-2.15 11.96-2.36 14.22a13.91 13.91 0 0 0 1.13 6.47 9.75 9.75 0 0 0 4.87 4.92 16.89 16.89 0 0 0 8.52 2 19.26 19.26 0 0 0 8.21-1.64 16.6 16.6 0 0 0 6.27-4.77 18 18 0 0 0 3.59-6.06 75.48 75.48 0 0 0 2.36-10.27l8-42.71ZM98.27 70.54c.61-7.29 1.54-16.12 2.88-26.8-3.8 12.22-6.37 21-7.7 26.8Zm14.89-41.18-4.52 64.07H95.19l1.44-11.6h-5.14l-3.08 11.6H73.83l20.54-64.06h18.79Zm-30.39 0H70.44L65.1 58.22l-2.87-28.85H50L38 93.44h12.31l5.44-29.16 2.16 29.16h12.84l12-64.07Zm-39.33.51-12.12 29 3 34.6H20.85l-2.46-22.9-4.31 22.9H0L14.68 0h14.07l-7.19 51.14 8.94-21.26h12.94Z" style="fill:#00acec"/></symbol><symbol viewBox="0 0 384 512" id="mobile-solid"><path d="M80 0C44.7 0 16 28.7 16 64v384c0 35.3 28.7 64 64 64h224c35.3 0 64-28.7 64-64V64c0-35.3-28.7-64-64-64H80zm80 432h64c8.8 0 16 7.2 16 16s-7.2 16-16 16h-64c-8.8 0-16-7.2-16-16s7.2-16 16-16z"/></symbol></svg>