<?xml version="1.0" encoding="utf-8"?><svg xmlns="http://www.w3.org/2000/svg" xmlns:xlink="http://www.w3.org/1999/xlink"><symbol viewBox="0 0 187.09 118.91" id="Asset_1"><path d="M163.06 29.37h24l-2.33 12.83H175l-2.26 12.12h8.73l-2.16 12.12h-8.73l-9.34 52.47h-14.3l16.12-89.54Zm-5.14 0h-14.57l-8.84 47.13a35.89 35.89 0 0 1-1.51 6.16 2.26 2.26 0 0 1-2.05 1.23 1.29 1.29 0 0 1-1.44-1.13 24.22 24.22 0 0 1 .62-5.44l9-48h-14.68l-7.09 37.89c-1.36 7.23-2.15 11.96-2.36 14.22a13.91 13.91 0 0 0 1.13 6.47 9.75 9.75 0 0 0 4.87 4.92 16.89 16.89 0 0 0 8.52 2 19.26 19.26 0 0 0 8.21-1.64 16.6 16.6 0 0 0 6.27-4.77 18 18 0 0 0 3.59-6.06 75.48 75.48 0 0 0 2.36-10.27l8-42.71ZM98.27 70.54c.61-7.29 1.54-16.12 2.88-26.8-3.8 12.22-6.37 21-7.7 26.8Zm14.89-41.18-4.52 64.07H95.19l1.44-11.6h-5.14l-3.08 11.6H73.83l20.54-64.06h18.79Zm-30.39 0H70.44L65.1 58.22l-2.87-28.85H50L38 93.44h12.31l5.44-29.16 2.16 29.16h12.84l12-64.07Zm-39.33.51-12.12 29 3 34.6H20.85l-2.46-22.9-4.31 22.9H0L14.68 0h14.07l-7.19 51.14 8.94-21.26h12.94Z" style="fill:#00acec"/></symbol><symbol viewBox="0 0 915 222" id="logo-blue"><path d="M907 8v206H8V8h899m8-8H0v222h915V0Z" fill="#1e4488"/><path fill="none" d="M28.46 18.69h197.53v158.62H28.46z"/><path d="M206.32 171.85c0 .79-4.14 4.5-12.43 11.15s-15.4 12-21.33 16.05c-.22-1.8-.5-4.51-.84-8.11-2.24-.45-5.66-.68-10.25-.68h-.34c-.11-1.92-.23-3.89-.34-5.92-.45-3.38-1.46-5.07-3.02-5.07-.22 0-.87.11-1.93.34-1.06.22-1.76.34-2.1.34-1.79 0-2.69-.96-2.69-2.87v-5.07c0-1.47-.4-2.48-1.18-3.04-2.82 1.01-5.18 1.52-7.1 1.52-1.47 0-3.04-.4-4.73-1.18 1.46-2.93 2.2-4.73 2.2-5.41 0-1.01-.57-1.8-1.69-2.37-1.8-.34-3.66-.73-5.58-1.18-2.26-.56-3.38-1.75-3.38-3.55 0-.22.25-1.04.76-2.45.51-1.41.76-2.22.76-2.45 0-2.37-1.69-3.55-5.07-3.55h-3.72c-1.13 0-1.77-.11-1.94-.34-.17-.22-.42-1.97-.76-5.24-.23-2.14-.73-3.77-1.52-4.9-1.8-2.7-4.34-4.06-7.6-4.06h-.85c-1.13 0-1.92-.05-2.37-.17-.45-.56-1.18-1.12-2.2-1.69-.56-.11-1.18-.17-1.86-.17h-2.2c-1.69 0-2.99-.39-3.89-1.18v-.84c0-.79.08-2.05.25-3.8.17-1.75.25-3.01.25-3.8 0-.45-.45-1.01-1.35-1.69h-4.06c-1.13 0-2.09-.06-2.87-.17v-.34c0-.56.14-1.75.42-3.55.28-1.8.42-3.15.42-4.06 0-2.48-.84-3.72-2.53-3.72-.34 0-.99.2-1.94.59-.96.4-1.61.59-1.94.59h-2.37c-.23-1.8-.51-3.66-.85-5.58-.56-2.59-1.35-3.89-2.37-3.89-.34 0-.82.11-1.44.34-.62.23-1.1.34-1.44.34-.68 0-1.41-.39-2.2-1.19 0-1.58-.06-3.3-.17-5.17-.11-1.86-.62-3.47-1.52-4.83-1.8-2.6-4.28-4.35-7.44-5.25-.56-.11-3.21-.51-7.94-1.19-2.59-.22-5.24-.39-7.94-.51-3.38-.34-5.8-1.07-7.27-2.2-5.64-4.07-8.45-9.49-8.45-16.26 0-8.35 3.38-16.21 10.14-23.55 6.76-7.34 14.31-11.01 22.65-11.01 3.94 0 7.94.97 12 2.9 4.96 2.5 7.94 5.68 8.96 9.54 0 1.82.56 4.2 1.69 7.15 1.58 1.25 3.27 1.87 5.07 1.87.45 0 .96-.06 1.52-.17h1.35c.45 0 .85.11 1.18.34 7.32 6.65 19.27 19.27 35.83 37.86 2.81 2.82 7.1 7.38 12.84 13.69 13.41 14.31 33.46 35.94 60.16 64.9.34.45.51 1.46.51 3.04v.84ZM76.53 56.86c0-9.19-3.38-13.78-10.14-13.78-3.72 0-7.83 1.7-12.34 5.1-5.07 3.74-7.6 7.71-7.6 11.91 0 5.33 3.72 8 11.15 8 3.04 0 6.53-.79 10.48-2.38 5.63-2.15 8.45-5.1 8.45-8.85Zm40.22 88.63v.85c.11.45.17.84.17 1.18 0 .57-.11 1.01-.34 1.35-3.27 4.06-7.6 8.99-13.01 14.79-5.41 5.8-8.34 8.7-8.79 8.7-2.14 0-5.3-2.03-9.46-6.08-1.58-1.69-2.76-4.06-3.55-7.1 5.97-5.75 11.94-11.49 17.91-17.24 2.59-2.25 6.98-3.38 13.18-3.38 2.59 0 3.89 2.31 3.89 6.93Zm101.74-74.7c-6.65 7.33-10.03 11.04-10.14 11.15-5.07 5.18-8.79 7.77-11.15 7.77-1.47 0-3.04-1.07-4.73-3.21-1.35-1.8-2.03-3.21-2.03-4.23 0-.34.31-1.01.93-2.03.62-1.01.93-1.69.93-2.03 0-.68-.9-1.66-2.7-2.96-1.8-1.29-3.04-1.94-3.72-1.94l-31.1 32.62c-3.36-1.01-6.17-4.6-8.4-10.77l28.06-30.42c-2.6-5.44-8.47-8.16-17.61-8.16-.68 0-3.67.23-8.97.68 7.21-9.01 15.04-13.52 23.49-13.52 4.62 0 10.03 1.92 16.22 5.75 4.06 2.59 8.73 6.2 14.03 10.82 4.39 3.83 6.76 5.75 7.1 5.75.22 0 .79-.25 1.69-.76.9-.51 1.46-.76 1.69-.76 1.35 0 3.49 2.09 6.42 6.25Z" fill="#1e4488"/><path fill="none" d="M221.9 45.01h679.44v86.78H221.9z"/><path d="M287.93 111.06c-3.07 1.54-9.22 3.07-17.09 3.07-18.24 0-31.97-11.52-31.97-32.73s13.73-33.98 33.79-33.98c8.06 0 13.15 1.73 15.36 2.88L286 57.12c-3.17-1.54-7.68-2.69-13.06-2.69-15.17 0-25.25 9.7-25.25 26.69 0 15.84 9.12 26.01 24.86 26.01 5.09 0 10.27-1.06 13.63-2.69l1.73 6.62ZM326.33 66.71v6.72h-14.49v39.74h-8.35V73.43H289v-6.72h37.34ZM333.72 81.87c0-5.95-.19-10.75-.38-15.17h7.58l.38 7.97h.19c3.46-5.66 8.93-9.02 16.51-9.02 11.23 0 19.68 9.5 19.68 23.61 0 16.7-10.18 24.96-21.12 24.96-6.14 0-11.52-2.69-14.3-7.3h-.19v25.25h-8.35v-50.3Zm8.36 12.39c0 1.25.19 2.4.38 3.46 1.54 5.86 6.62 9.89 12.67 9.89 8.93 0 14.11-7.3 14.11-17.95 0-9.31-4.9-17.28-13.82-17.28-5.76 0-11.14 4.13-12.77 10.46-.29 1.06-.58 2.3-.58 3.46v7.97ZM430.39 89.55c0 17.18-11.9 24.67-23.13 24.67-12.58 0-22.27-9.21-22.27-23.9 0-15.55 10.18-24.67 23.04-24.67s22.37 9.7 22.37 23.9Zm-36.86.48c0 10.18 5.86 17.85 14.11 17.85s14.11-7.58 14.11-18.05c0-7.87-3.94-17.85-13.92-17.85s-14.3 9.22-14.3 18.05ZM448.83 66.71v19.58c0 7.39-.1 12-.48 18.62l.29.1c2.78-5.66 4.42-8.93 7.49-14.3l14.5-24h9.89v46.46h-8.06V93.49c0-7.58.19-11.52.58-19.01h-.29c-2.98 5.95-4.99 9.7-7.68 14.4-4.42 7.2-9.5 16.13-14.5 24.29h-9.7V66.71h7.97Zm5.47-18.91c.29 4.13 2.3 7.3 6.14 7.3 4.13 0 6.05-3.07 6.53-7.3h6.05c-.38 7.87-5.38 11.9-12.77 11.9-8.45 0-11.71-5.28-12.09-11.9h6.14ZM494.52 49.24c4.03-.67 9.31-1.25 16.03-1.25 8.26 0 14.3 1.92 18.14 5.38 3.55 3.07 5.66 7.78 5.66 13.54s-1.73 10.46-4.99 13.82c-4.42 4.7-11.62 7.1-19.77 7.1-2.5 0-4.8-.1-6.72-.58v25.92h-8.35V49.24Zm8.35 31.19c1.82.48 4.13.67 6.91.67 10.08 0 16.22-4.9 16.22-13.82s-6.05-12.67-15.26-12.67c-3.65 0-6.43.29-7.87.67v25.15ZM547.32 91.47c.19 11.42 7.49 16.13 15.94 16.13 6.05 0 9.69-1.06 12.86-2.4l1.44 6.05c-2.98 1.34-8.06 2.88-15.46 2.88-14.3 0-22.85-9.41-22.85-23.42s8.26-25.05 21.79-25.05c15.17 0 19.2 13.34 19.2 21.89 0 1.73-.19 3.07-.29 3.94h-32.64Zm24.77-6.04c.1-5.38-2.21-13.73-11.71-13.73-8.54 0-12.29 7.87-12.96 13.73h24.67ZM591.19 66.71h10.37l8.45 23.42c1.15 3.46 3.17 9.12 4.22 12.77h.19c1.06-3.46 3.65-10.85 5.47-15.93l7.49-20.25h10.46l3.26 46.46h-8.06l-1.06-22.17c-.29-4.99-.67-10.94-.86-16.61h-.29c-1.25 4.22-2.5 7.97-5.09 15.07l-8.93 23.42h-6.14l-8.25-22.94c-1.44-4.42-3.46-11.14-4.61-15.45h-.38c-.19 5.47-.48 11.62-.77 16.7l-1.15 21.98h-7.78l3.46-46.46ZM694.1 89.55c0 17.18-11.9 24.67-23.13 24.67-12.58 0-22.27-9.21-22.27-23.9 0-15.55 10.18-24.67 23.04-24.67s22.37 9.7 22.37 23.9Zm-36.86.48c0 10.18 5.86 17.85 14.11 17.85s14.11-7.58 14.11-18.05c0-7.87-3.94-17.85-13.92-17.85s-14.3 9.22-14.3 18.05ZM712.92 66.71v18.72H735V66.71h8.35v46.46H735V92.15h-22.08v21.02h-8.35V66.71h8.35ZM788.28 66.71v6.72h-14.5v39.74h-8.35V73.43h-14.5v-6.72h37.34ZM793.65 113.17v-5.18l6.62-6.43c15.93-15.17 23.13-23.23 23.23-32.64 0-6.34-3.07-12.19-12.38-12.19-5.66 0-10.37 2.88-13.25 5.28l-2.69-5.95c4.32-3.65 10.46-6.34 17.66-6.34 13.44 0 19.1 9.22 19.1 18.14 0 11.52-8.35 20.83-21.5 33.5l-4.99 4.61v.19h28.03v7.01h-39.84ZM869.01 113.17V96.18h-28.99v-5.57l27.84-39.84h9.12v38.78h8.74v6.62h-8.74v16.99h-7.97Zm0-23.62V68.72c0-3.26.1-6.53.29-9.79h-.29c-1.92 3.65-3.46 6.34-5.18 9.22l-15.26 21.21v.19h20.45Z" fill="#1e4488"/><path fill="none" d="M250.38 140.22h622.49V227H250.38z"/><path d="M431.06 151.75v3.62h-10.71v21.06h-4.44v-24.68h15.14ZM430.71 173.77c0-1.89 1.28-3.21 3.06-3.21s3.01 1.33 3.01 3.21-1.17 3.21-3.06 3.21c-1.78 0-3.01-1.38-3.01-3.21ZM457.69 142.06v15.25h1.38l11.78-15.25h5.35l-13 15.76c5.66.76 7.85 4.23 9.64 8.87 1.28 3.52 2.24 6.68 3.77 9.74h-4.79c-1.22-2.35-2.19-5.41-3.11-8.11-1.58-4.54-3.77-7.65-9.59-7.65h-1.43v15.76h-4.38v-34.37h4.38ZM480.79 159.8c0-3.16-.1-5.71-.2-8.06h4.03l.2 4.23h.1c1.84-3.01 4.74-4.79 8.77-4.79 5.97 0 10.45 5.05 10.45 12.54 0 8.87-5.41 13.26-11.22 13.26-3.26 0-6.12-1.43-7.6-3.88h-.1v13.41h-4.44v-26.72Zm4.44 6.58c0 .66.1 1.27.2 1.84.82 3.11 3.52 5.25 6.73 5.25 4.74 0 7.5-3.88 7.5-9.54 0-4.95-2.6-9.18-7.34-9.18-3.06 0-5.92 2.19-6.78 5.56-.15.56-.31 1.22-.31 1.83v4.23ZM523.48 176.43l-.36-3.11h-.15c-1.38 1.94-4.03 3.67-7.55 3.67-5 0-7.55-3.52-7.55-7.09 0-5.97 5.3-9.23 14.84-9.18v-.51c0-2.04-.56-5.71-5.61-5.71-2.29 0-4.69.71-6.42 1.84l-1.02-2.96c2.04-1.33 5-2.19 8.11-2.19 7.55 0 9.38 5.15 9.38 10.1v9.23c0 2.14.1 4.23.41 5.92h-4.08Zm-.67-12.6c-4.9-.1-10.45.76-10.45 5.56 0 2.91 1.94 4.28 4.23 4.28 3.21 0 5.25-2.04 5.97-4.13.15-.46.25-.97.25-1.43v-4.28ZM551.98 175.51c-1.17.61-3.77 1.43-7.09 1.43-7.45 0-12.29-5.05-12.29-12.6s5.2-13.11 13.26-13.11c2.65 0 5 .66 6.22 1.27l-1.02 3.47c-1.07-.61-2.75-1.17-5.2-1.17-5.66 0-8.72 4.18-8.72 9.33 0 5.71 3.67 9.23 8.57 9.23 2.55 0 4.23-.66 5.51-1.22l.76 3.37ZM561.57 151.75v9.94h11.73v-9.94h4.44v24.68h-4.44v-11.17h-11.73v11.17h-4.44v-24.68h4.44ZM607.42 163.88c0 9.13-6.32 13.11-12.29 13.11-6.68 0-11.83-4.9-11.83-12.7 0-8.26 5.41-13.11 12.24-13.11s11.88 5.15 11.88 12.7Zm-19.58.26c0 5.41 3.11 9.49 7.5 9.49s7.5-4.03 7.5-9.59c0-4.18-2.09-9.49-7.39-9.49s-7.6 4.9-7.6 9.59ZM631.08 176.43h-4.44v-10.35h-3.31c-1.89 0-3.16.51-4.13 1.38-1.84 1.48-2.5 4.54-3.47 6.94-.31.76-.66 1.43-1.02 2.04h-4.79c.56-.82 1.07-1.73 1.53-2.8 1.07-2.4 1.68-5.61 3.88-7.45.76-.66 1.68-1.22 2.8-1.43v-.15c-3.21-.36-6.53-2.35-6.53-6.12 0-2.55 1.38-4.28 3.26-5.35 2.04-1.17 5.05-1.68 8.26-1.68 2.96 0 5.81.25 7.96.51v24.48Zm-4.43-21.73c-1.12-.15-2.14-.26-3.72-.26-3.06 0-6.68.87-6.68 4.28 0 3.16 3.93 4.28 6.58 4.28h3.82v-8.31ZM638.38 159.8c0-3.16-.1-5.71-.2-8.06h4.03l.2 4.23h.1c1.84-3.01 4.74-4.79 8.77-4.79 5.97 0 10.45 5.05 10.45 12.54 0 8.87-5.41 13.26-11.22 13.26-3.26 0-6.12-1.43-7.6-3.88h-.1v13.41h-4.44v-26.72Zm4.44 6.58c0 .66.1 1.27.2 1.84.82 3.11 3.52 5.25 6.73 5.25 4.74 0 7.5-3.88 7.5-9.54 0-4.95-2.6-9.18-7.34-9.18-3.06 0-5.92 2.19-6.78 5.56-.15.56-.31 1.22-.31 1.83v4.23ZM684.99 175.51c-1.17.61-3.77 1.43-7.09 1.43-7.45 0-12.29-5.05-12.29-12.6s5.2-13.11 13.26-13.11c2.65 0 5 .66 6.22 1.27l-1.02 3.47c-1.07-.61-2.75-1.17-5.2-1.17-5.66 0-8.72 4.18-8.72 9.33 0 5.71 3.67 9.23 8.57 9.23 2.55 0 4.23-.66 5.51-1.22l.76 3.37ZM694.68 151.75v10.71h1.07l9.28-10.71h5.46l-10.76 11.17c3.98.41 6.37 3.06 8.31 7.5.66 1.63 1.53 4.03 2.65 6.02H706c-.66-1.07-1.53-3.01-2.29-5.05-1.68-3.98-3.98-5.81-8.16-5.81h-.87v10.86h-4.44v-24.68h4.44Z" fill="#1e4488"/></symbol><symbol viewBox="0 0 915 222" id="logo-white"><g fill="#fff"><path d="M907 8v206H8V8h899m8-8H0v222h915V0Z"/><path d="M206.32 171.85c0 .79-4.14 4.5-12.43 11.15s-15.4 12-21.33 16.05c-.22-1.8-.5-4.51-.84-8.11-2.24-.45-5.66-.68-10.25-.68h-.34c-.11-1.92-.23-3.89-.34-5.92-.45-3.38-1.46-5.07-3.02-5.07-.22 0-.87.11-1.93.34-1.06.22-1.76.34-2.1.34-1.79 0-2.69-.96-2.69-2.87v-5.07c0-1.47-.4-2.48-1.18-3.04-2.82 1.01-5.18 1.52-7.1 1.52-1.47 0-3.04-.4-4.73-1.18 1.46-2.93 2.2-4.73 2.2-5.41 0-1.01-.57-1.8-1.69-2.37-1.8-.34-3.66-.73-5.58-1.18-2.26-.56-3.38-1.75-3.38-3.55 0-.22.25-1.04.76-2.45.51-1.41.76-2.22.76-2.45 0-2.37-1.69-3.55-5.07-3.55h-3.72c-1.13 0-1.77-.11-1.94-.34-.17-.22-.42-1.97-.76-5.24-.23-2.14-.73-3.77-1.52-4.9-1.8-2.7-4.34-4.06-7.6-4.06h-.85c-1.13 0-1.92-.05-2.37-.17-.45-.56-1.18-1.12-2.2-1.69-.56-.11-1.18-.17-1.86-.17h-2.2c-1.69 0-2.99-.39-3.89-1.18v-.84c0-.79.08-2.05.25-3.8.17-1.75.25-3.01.25-3.8 0-.45-.45-1.01-1.35-1.69h-4.06c-1.13 0-2.09-.06-2.87-.17v-.34c0-.56.14-1.75.42-3.55.28-1.8.42-3.15.42-4.06 0-2.48-.84-3.72-2.53-3.72-.34 0-.99.2-1.94.59-.96.4-1.61.59-1.94.59h-2.37c-.23-1.8-.51-3.66-.85-5.58-.56-2.59-1.35-3.89-2.37-3.89-.34 0-.82.11-1.44.34-.62.23-1.1.34-1.44.34-.68 0-1.41-.39-2.2-1.19 0-1.58-.06-3.3-.17-5.17-.11-1.86-.62-3.47-1.52-4.83-1.8-2.6-4.28-4.35-7.44-5.25-.56-.11-3.21-.51-7.94-1.19-2.59-.22-5.24-.39-7.94-.51-3.38-.34-5.8-1.07-7.27-2.2-5.64-4.07-8.45-9.49-8.45-16.26 0-8.35 3.38-16.21 10.14-23.55 6.76-7.34 14.31-11.01 22.65-11.01 3.94 0 7.94.97 12 2.9 4.96 2.5 7.94 5.68 8.96 9.54 0 1.82.56 4.2 1.69 7.15 1.58 1.25 3.27 1.87 5.07 1.87.45 0 .96-.06 1.52-.17h1.35c.45 0 .85.11 1.18.34 7.32 6.65 19.27 19.27 35.83 37.86 2.81 2.82 7.1 7.38 12.84 13.69 13.41 14.31 33.46 35.94 60.16 64.9.34.45.51 1.46.51 3.04v.84ZM76.53 56.86c0-9.19-3.38-13.78-10.14-13.78-3.72 0-7.83 1.7-12.34 5.1-5.07 3.74-7.6 7.71-7.6 11.91 0 5.33 3.72 8 11.15 8 3.04 0 6.53-.79 10.48-2.38 5.63-2.15 8.45-5.1 8.45-8.85Zm40.22 88.63v.85c.11.45.17.84.17 1.18 0 .57-.11 1.01-.34 1.35-3.27 4.06-7.6 8.99-13.01 14.79-5.41 5.8-8.34 8.7-8.79 8.7-2.14 0-5.3-2.03-9.46-6.08-1.58-1.69-2.76-4.06-3.55-7.1 5.97-5.75 11.94-11.49 17.91-17.24 2.59-2.25 6.98-3.38 13.18-3.38 2.59 0 3.89 2.31 3.89 6.93Zm101.74-74.7c-6.65 7.33-10.03 11.04-10.14 11.15-5.07 5.18-8.79 7.77-11.15 7.77-1.47 0-3.04-1.07-4.73-3.21-1.35-1.8-2.03-3.21-2.03-4.23 0-.34.31-1.01.93-2.03.62-1.01.93-1.69.93-2.03 0-.68-.9-1.66-2.7-2.96-1.8-1.29-3.04-1.94-3.72-1.94l-31.1 32.62c-3.36-1.01-6.17-4.6-8.4-10.77l28.06-30.42c-2.6-5.44-8.47-8.16-17.61-8.16-.68 0-3.67.23-8.97.68 7.21-9.01 15.04-13.52 23.49-13.52 4.62 0 10.03 1.92 16.22 5.75 4.06 2.59 8.73 6.2 14.03 10.82 4.39 3.83 6.76 5.75 7.1 5.75.22 0 .79-.25 1.69-.76.9-.51 1.46-.76 1.69-.76 1.35 0 3.49 2.09 6.42 6.25ZM287.93 111.06c-3.07 1.54-9.22 3.07-17.09 3.07-18.24 0-31.97-11.52-31.97-32.73s13.73-33.98 33.79-33.98c8.06 0 13.15 1.73 15.36 2.88L286 57.12c-3.17-1.54-7.68-2.69-13.06-2.69-15.17 0-25.25 9.7-25.25 26.69 0 15.84 9.12 26.01 24.86 26.01 5.09 0 10.27-1.06 13.63-2.69l1.73 6.62ZM326.33 66.71v6.72h-14.49v39.74h-8.35V73.43H289v-6.72h37.34ZM333.72 81.87c0-5.95-.19-10.75-.38-15.17h7.58l.38 7.97h.19c3.46-5.66 8.93-9.02 16.51-9.02 11.23 0 19.68 9.5 19.68 23.61 0 16.7-10.18 24.96-21.12 24.96-6.14 0-11.52-2.69-14.3-7.3h-.19v25.25h-8.35v-50.3Zm8.36 12.39c0 1.25.19 2.4.38 3.46 1.54 5.86 6.62 9.89 12.67 9.89 8.93 0 14.11-7.3 14.11-17.95 0-9.31-4.9-17.28-13.82-17.28-5.76 0-11.14 4.13-12.77 10.46-.29 1.06-.58 2.3-.58 3.46v7.97ZM430.39 89.55c0 17.18-11.9 24.67-23.13 24.67-12.58 0-22.27-9.21-22.27-23.9 0-15.55 10.18-24.67 23.04-24.67s22.37 9.7 22.37 23.9Zm-36.86.48c0 10.18 5.86 17.85 14.11 17.85s14.11-7.58 14.11-18.05c0-7.87-3.94-17.85-13.92-17.85s-14.3 9.22-14.3 18.05ZM448.83 66.71v19.58c0 7.39-.1 12-.48 18.62l.29.1c2.78-5.66 4.42-8.93 7.49-14.3l14.5-24h9.89v46.46h-8.06V93.49c0-7.58.19-11.52.58-19.01h-.29c-2.98 5.95-4.99 9.7-7.68 14.4-4.42 7.2-9.5 16.13-14.5 24.29h-9.7V66.71h7.97Zm5.47-18.91c.29 4.13 2.3 7.3 6.14 7.3 4.13 0 6.05-3.07 6.53-7.3h6.05c-.38 7.87-5.38 11.9-12.77 11.9-8.45 0-11.71-5.28-12.09-11.9h6.14ZM494.52 49.24c4.03-.67 9.31-1.25 16.03-1.25 8.26 0 14.3 1.92 18.14 5.38 3.55 3.07 5.66 7.78 5.66 13.54s-1.73 10.46-4.99 13.82c-4.42 4.7-11.62 7.1-19.77 7.1-2.5 0-4.8-.1-6.72-.58v25.92h-8.35V49.24Zm8.35 31.19c1.82.48 4.13.67 6.91.67 10.08 0 16.22-4.9 16.22-13.82s-6.05-12.67-15.26-12.67c-3.65 0-6.43.29-7.87.67v25.15ZM547.32 91.47c.19 11.42 7.49 16.13 15.94 16.13 6.05 0 9.69-1.06 12.86-2.4l1.44 6.05c-2.98 1.34-8.06 2.88-15.46 2.88-14.3 0-22.85-9.41-22.85-23.42s8.26-25.05 21.79-25.05c15.17 0 19.2 13.34 19.2 21.89 0 1.73-.19 3.07-.29 3.94h-32.64Zm24.77-6.04c.1-5.38-2.21-13.73-11.71-13.73-8.54 0-12.29 7.87-12.96 13.73h24.67ZM591.19 66.71h10.37l8.45 23.42c1.15 3.46 3.17 9.12 4.22 12.77h.19c1.06-3.46 3.65-10.85 5.47-15.93l7.49-20.25h10.46l3.26 46.46h-8.06l-1.06-22.17c-.29-4.99-.67-10.94-.86-16.61h-.29c-1.25 4.22-2.5 7.97-5.09 15.07l-8.93 23.42h-6.14l-8.25-22.94c-1.44-4.42-3.46-11.14-4.61-15.45h-.38c-.19 5.47-.48 11.62-.77 16.7l-1.15 21.98h-7.78l3.46-46.46ZM694.1 89.55c0 17.18-11.9 24.67-23.13 24.67-12.58 0-22.27-9.21-22.27-23.9 0-15.55 10.18-24.67 23.04-24.67s22.37 9.7 22.37 23.9Zm-36.86.48c0 10.18 5.86 17.85 14.11 17.85s14.11-7.58 14.11-18.05c0-7.87-3.94-17.85-13.92-17.85s-14.3 9.22-14.3 18.05ZM712.92 66.71v18.72H735V66.71h8.35v46.46H735V92.15h-22.08v21.02h-8.35V66.71h8.35ZM788.28 66.71v6.72h-14.5v39.74h-8.35V73.43h-14.5v-6.72h37.34ZM793.65 113.17v-5.18l6.62-6.43c15.93-15.17 23.13-23.23 23.23-32.64 0-6.34-3.07-12.19-12.38-12.19-5.66 0-10.37 2.88-13.25 5.28l-2.69-5.95c4.32-3.65 10.46-6.34 17.66-6.34 13.44 0 19.1 9.22 19.1 18.14 0 11.52-8.35 20.83-21.5 33.5l-4.99 4.61v.19h28.03v7.01h-39.84ZM869.01 113.17V96.18h-28.99v-5.57l27.84-39.84h9.12v38.78h8.74v6.62h-8.74v16.99h-7.97Zm0-23.62V68.72c0-3.26.1-6.53.29-9.79h-.29c-1.92 3.65-3.46 6.34-5.18 9.22l-15.26 21.21v.19h20.45ZM431.06 151.75v3.62h-10.71v21.06h-4.44v-24.68h15.14ZM430.71 173.77c0-1.89 1.28-3.21 3.06-3.21s3.01 1.33 3.01 3.21-1.17 3.21-3.06 3.21c-1.78 0-3.01-1.38-3.01-3.21ZM457.69 142.06v15.25h1.38l11.78-15.25h5.35l-13 15.76c5.66.76 7.85 4.23 9.64 8.87 1.28 3.52 2.24 6.68 3.77 9.74h-4.79c-1.22-2.35-2.19-5.41-3.11-8.11-1.58-4.54-3.77-7.65-9.59-7.65h-1.43v15.76h-4.38v-34.37h4.38ZM480.79 159.8c0-3.16-.1-5.71-.2-8.06h4.03l.2 4.23h.1c1.84-3.01 4.74-4.79 8.77-4.79 5.97 0 10.45 5.05 10.45 12.54 0 8.87-5.41 13.26-11.22 13.26-3.26 0-6.12-1.43-7.6-3.88h-.1v13.41h-4.44v-26.72Zm4.44 6.58c0 .66.1 1.27.2 1.84.82 3.11 3.52 5.25 6.73 5.25 4.74 0 7.5-3.88 7.5-9.54 0-4.95-2.6-9.18-7.34-9.18-3.06 0-5.92 2.19-6.78 5.56-.15.56-.31 1.22-.31 1.83v4.23ZM523.48 176.43l-.36-3.11h-.15c-1.38 1.94-4.03 3.67-7.55 3.67-5 0-7.55-3.52-7.55-7.09 0-5.97 5.3-9.23 14.84-9.18v-.51c0-2.04-.56-5.71-5.61-5.71-2.29 0-4.69.71-6.42 1.84l-1.02-2.96c2.04-1.33 5-2.19 8.11-2.19 7.55 0 9.38 5.15 9.38 10.1v9.23c0 2.14.1 4.23.41 5.92h-4.08Zm-.67-12.6c-4.9-.1-10.45.76-10.45 5.56 0 2.91 1.94 4.28 4.23 4.28 3.21 0 5.25-2.04 5.97-4.13.15-.46.25-.97.25-1.43v-4.28ZM551.98 175.51c-1.17.61-3.77 1.43-7.09 1.43-7.45 0-12.29-5.05-12.29-12.6s5.2-13.11 13.26-13.11c2.65 0 5 .66 6.22 1.27l-1.02 3.47c-1.07-.61-2.75-1.17-5.2-1.17-5.66 0-8.72 4.18-8.72 9.33 0 5.71 3.67 9.23 8.57 9.23 2.55 0 4.23-.66 5.51-1.22l.76 3.37ZM561.57 151.75v9.94h11.73v-9.94h4.44v24.68h-4.44v-11.17h-11.73v11.17h-4.44v-24.68h4.44ZM607.42 163.88c0 9.13-6.32 13.11-12.29 13.11-6.68 0-11.83-4.9-11.83-12.7 0-8.26 5.41-13.11 12.24-13.11s11.88 5.15 11.88 12.7Zm-19.58.26c0 5.41 3.11 9.49 7.5 9.49s7.5-4.03 7.5-9.59c0-4.18-2.09-9.49-7.39-9.49s-7.6 4.9-7.6 9.59ZM631.08 176.43h-4.44v-10.35h-3.31c-1.89 0-3.16.51-4.13 1.38-1.84 1.48-2.5 4.54-3.47 6.94-.31.76-.66 1.43-1.02 2.04h-4.79c.56-.82 1.07-1.73 1.53-2.8 1.07-2.4 1.68-5.61 3.88-7.45.76-.66 1.68-1.22 2.8-1.43v-.15c-3.21-.36-6.53-2.35-6.53-6.12 0-2.55 1.38-4.28 3.26-5.35 2.04-1.17 5.05-1.68 8.26-1.68 2.96 0 5.81.25 7.96.51v24.48Zm-4.43-21.73c-1.12-.15-2.14-.26-3.72-.26-3.06 0-6.68.87-6.68 4.28 0 3.16 3.93 4.28 6.58 4.28h3.82v-8.31ZM638.38 159.8c0-3.16-.1-5.71-.2-8.06h4.03l.2 4.23h.1c1.84-3.01 4.74-4.79 8.77-4.79 5.97 0 10.45 5.05 10.45 12.54 0 8.87-5.41 13.26-11.22 13.26-3.26 0-6.12-1.43-7.6-3.88h-.1v13.41h-4.44v-26.72Zm4.44 6.58c0 .66.1 1.27.2 1.84.82 3.11 3.52 5.25 6.73 5.25 4.74 0 7.5-3.88 7.5-9.54 0-4.95-2.6-9.18-7.34-9.18-3.06 0-5.92 2.19-6.78 5.56-.15.56-.31 1.22-.31 1.83v4.23ZM684.99 175.51c-1.17.61-3.77 1.43-7.09 1.43-7.45 0-12.29-5.05-12.29-12.6s5.2-13.11 13.26-13.11c2.65 0 5 .66 6.22 1.27l-1.02 3.47c-1.07-.61-2.75-1.17-5.2-1.17-5.66 0-8.72 4.18-8.72 9.33 0 5.71 3.67 9.23 8.57 9.23 2.55 0 4.23-.66 5.51-1.22l.76 3.37ZM694.68 151.75v10.71h1.07l9.28-10.71h5.46l-10.76 11.17c3.98.41 6.37 3.06 8.31 7.5.66 1.63 1.53 4.03 2.65 6.02H706c-.66-1.07-1.53-3.01-2.29-5.05-1.68-3.98-3.98-5.81-8.16-5.81h-.87v10.86h-4.44v-24.68h4.44Z"/></g></symbol><symbol viewBox="0 0 384 512" id="mobile-solid"><path d="M80 0C44.7 0 16 28.7 16 64v384c0 35.3 28.7 64 64 64h224c35.3 0 64-28.7 64-64V64c0-35.3-28.7-64-64-64H80zm80 432h64c8.8 0 16 7.2 16 16s-7.2 16-16 16h-64c-8.8 0-16-7.2-16-16s7.2-16 16-16z"/></symbol></svg>